<svg width="96" height="96" viewBox="0 0 96 96" fill="none" xmlns="http://www.w3.org/2000/svg">
<g clip-path="url(#clip0)">
<path d="M65.625 22.7038C65.157 22.7038 64.845 22.7668 64.53 22.8448V22.8928H64.578C64.797 23.2978 65.157 23.6128 65.436 23.9878C65.655 24.4108 65.841 24.8458 66.045 25.2688L66.108 25.2058C66.483 24.9388 66.672 24.5188 66.672 23.8768C66.516 23.6878 66.483 23.4868 66.345 23.3128C66.189 23.0458 65.844 22.9078 65.625 22.7038ZM23.079 75.4828H19.377C19.2649 69.5903 18.9056 63.7051 18.3 57.8428H18.27L12.63 75.4828H9.80102L4.20602 57.8428H4.15802C3.72322 63.7138 3.4631 69.5964 3.37802 75.4828H0.00302124C0.18577 68.0853 0.733436 60.7013 1.64402 53.3578H6.23702L11.58 69.6088H11.61L17.001 53.3578H21.375C22.344 61.4218 22.923 68.7958 23.094 75.4828H23.079ZM39.141 59.1568C37.641 67.3438 35.64 73.2988 33.189 77.0008C31.251 79.8598 29.142 81.2968 26.844 81.2968C26.235 81.2968 25.485 81.1078 24.579 80.7328V78.7648C25.032 78.8278 25.548 78.8728 26.127 78.8728C27.204 78.8728 28.065 78.5608 28.722 77.9818C29.502 77.2618 29.895 76.4518 29.895 75.5608C29.895 74.9368 29.598 73.6858 28.974 71.7808L24.927 59.1568H28.569L31.476 68.5948C32.133 70.7518 32.415 72.2368 32.289 73.0948C33.897 68.8438 35.007 64.1878 35.634 59.1568H39.141ZM88.452 75.4828H77.922V53.3578H81.468V72.7648H88.452V75.4828ZM75.171 76.0168L71.109 74.0158C71.469 73.7188 71.811 73.3918 72.126 73.0168C73.86 71.0008 74.721 67.9858 74.721 64.0168C74.721 56.6878 71.847 53.0338 66.096 53.0338C63.282 53.0338 61.08 53.9548 59.502 55.8148C57.783 57.8458 56.907 60.8458 56.907 64.7998C56.907 68.6908 57.672 71.5348 59.205 73.3618C60.612 74.9878 62.721 75.8158 65.55 75.8158C66.597 75.8158 67.566 75.6898 68.442 75.4258L73.74 78.5188L75.192 76.0198L75.171 76.0168ZM62.001 71.0458C61.095 69.6088 60.657 67.2958 60.657 64.1068C60.657 58.5298 62.346 55.7488 65.736 55.7488C67.503 55.7488 68.814 56.4208 69.642 57.7498C70.533 59.2018 70.986 61.4848 70.986 64.6408C70.986 70.2508 69.282 73.0798 65.907 73.0798C64.125 73.0798 62.829 72.4078 61.986 71.0788L62.001 71.0458ZM55.374 69.3598C55.374 71.2348 54.687 72.7828 53.295 73.9678C51.921 75.1708 50.091 75.7798 47.763 75.7798C45.591 75.7798 43.512 75.0928 41.466 73.7158L42.42 71.8108C44.169 72.6868 45.747 73.1248 47.187 73.1248C48.516 73.1248 49.563 72.8278 50.313 72.2488C51.063 71.6548 51.516 70.8268 51.516 69.7798C51.516 68.4658 50.595 67.3408 48.921 66.4048C47.373 65.5468 44.265 63.7798 44.265 63.7798C42.576 62.5468 41.748 61.2328 41.748 59.0608C41.748 57.2638 42.372 55.8268 43.623 54.7318C44.889 53.6068 46.497 53.0608 48.498 53.0608C50.4888 53.0435 52.4404 53.6144 54.108 54.7018L53.25 56.6068C51.9096 56.0165 50.4636 55.7032 48.999 55.6858C47.859 55.6858 46.983 55.9678 46.374 56.5138C45.765 57.0598 45.39 57.7468 45.39 58.6078C45.39 59.9218 46.329 61.0468 48.045 62.0128C49.623 62.8708 52.794 64.6858 52.794 64.6858C54.528 65.9038 55.389 67.2178 55.389 69.3568L55.374 69.3598ZM92.892 45.9388C90.75 45.8908 89.094 46.1098 87.705 46.7038C87.315 46.8598 86.673 46.8598 86.61 47.3608C86.829 47.5798 86.859 47.9248 87.048 48.2188C87.375 48.7498 87.924 49.4698 88.44 49.8448C89.004 50.2828 89.565 50.7208 90.144 51.0958C91.191 51.7378 92.364 52.1128 93.393 52.7518C93.972 53.1268 94.566 53.6098 95.142 54.0028C95.439 54.2068 95.625 54.5668 96 54.6898V54.6118C95.811 54.3778 95.766 54.0328 95.577 53.7538C95.31 53.4868 95.046 53.2528 94.779 52.9888C93.9966 51.9501 93.0586 51.0383 91.998 50.2858C91.14 49.7068 89.265 48.8938 88.92 47.9098L88.872 47.8468C89.451 47.7988 90.138 47.5798 90.699 47.4238C91.605 47.1898 92.448 47.2348 93.387 47.0008C93.8178 46.889 94.245 46.764 94.668 46.6258V46.3918C94.185 45.9088 93.825 45.2518 93.324 44.7988C91.9435 43.5908 90.4699 42.4934 88.917 41.5168C88.074 40.9708 87.012 40.6258 86.121 40.1728C85.809 40.0168 85.263 39.9388 85.089 39.6718C84.606 39.0778 84.324 38.3128 83.979 37.6078C83.1943 36.0826 82.4648 34.5296 81.792 32.9518C81.309 31.9048 81.027 30.8728 80.433 29.9038C77.682 25.3558 74.682 22.6078 70.089 19.9048C69.105 19.3408 67.917 19.1068 66.666 18.8098C65.994 18.7798 65.337 18.7318 64.665 18.7018C64.227 18.5128 63.807 18.0148 63.432 17.7628C61.902 16.7938 57.963 14.7148 56.853 17.4658C56.133 19.2148 57.915 20.9188 58.542 21.7948C58.995 22.4188 59.574 23.1088 59.901 23.7958C60.09 24.2638 60.135 24.7498 60.324 25.2328C60.747 26.4058 61.152 27.7168 61.716 28.8118C62.013 29.3758 62.325 29.9668 62.7 30.4678C62.919 30.7648 63.294 30.8908 63.372 31.3738C62.997 31.9198 62.967 32.7178 62.763 33.3748C61.794 36.4048 62.169 40.1398 63.528 42.3748C63.966 43.0468 64.98 44.5168 66.342 43.9528C67.545 43.4698 67.281 41.9518 67.623 40.6078C67.701 40.2808 67.653 40.0768 67.812 39.8578V39.9208C68.202 40.6708 68.577 41.3908 68.922 42.1408C69.735 43.4548 71.187 44.8138 72.39 45.7198C73.032 46.2028 73.53 47.0338 74.328 47.3278V47.2498H74.265C74.094 47.0158 73.875 46.9048 73.656 46.7188C73.1494 46.2169 72.6792 45.6796 72.249 45.1108C71.139 43.6108 70.14 41.9548 69.264 40.2508C68.842 39.4089 68.4567 38.5491 68.109 37.6738C67.953 37.3618 67.953 36.8758 67.686 36.7198C67.281 37.2988 66.687 37.7968 66.405 38.5318C65.889 39.6718 65.841 41.0938 65.64 42.5638C65.547 42.5938 65.592 42.5638 65.547 42.6268C64.689 42.4078 64.392 41.5318 64.077 40.7818C63.264 38.8768 63.138 35.8288 63.828 33.6418C64.017 33.0778 64.812 31.3138 64.5 30.7828C64.329 30.2668 63.798 29.9698 63.516 29.5648C63.156 29.0638 62.796 28.4248 62.547 27.8608C61.905 26.3608 61.593 24.7048 60.891 23.2048C60.579 22.5178 60.015 21.7978 59.562 21.1588C59.046 20.4388 58.485 19.9258 58.092 19.0798C57.951 18.7828 57.765 18.2998 57.984 17.9848C58.032 17.7658 58.14 17.6878 58.359 17.6248C58.704 17.3278 59.703 17.7028 60.048 17.8738C61.032 18.2638 61.86 18.6388 62.688 19.2028C63.063 19.4698 63.468 19.9678 63.954 20.1088H64.518C65.376 20.2978 66.33 20.1568 67.128 20.4058C68.55 20.8588 69.831 21.5158 70.986 22.2328C74.5182 24.5002 77.3906 27.6582 79.314 31.3888C79.641 31.9978 79.782 32.5618 80.079 33.2008C80.625 34.5298 81.33 35.8558 81.891 37.1218C82.452 38.3878 82.986 39.6688 83.796 40.7158C84.201 41.2798 85.797 41.5738 86.529 41.8558C87.06 42.1048 87.888 42.3238 88.356 42.6058C89.277 43.1698 90.183 43.8088 91.044 44.4328C91.482 44.7298 92.811 45.4018 92.889 45.9328L92.892 45.9388Z" fill="black"/>
</g>
<defs>
<clipPath id="clip0">
<rect width="96" height="96" fill="white"/>
</clipPath>
</defs>
</svg>
