<svg width="96" height="96" viewBox="0 0 96 96" fill="none" xmlns="http://www.w3.org/2000/svg">
<path d="M48 87.9403C46.9 87.9403 45.872 87.6443 44.912 87.1323L35.156 81.3403C33.696 80.5283 34.428 80.2323 34.868 80.0843C36.852 79.4243 37.22 79.2803 39.272 78.1123C39.496 77.9643 39.788 78.0323 40.012 78.1803L47.492 82.6603C47.788 82.8043 48.156 82.8043 48.376 82.6603L77.652 65.7123C77.948 65.5683 78.092 65.2723 78.092 64.9043V31.0723C78.092 30.7083 77.948 30.4123 77.652 30.2683L48.376 13.3923C48.084 13.2443 47.716 13.2443 47.492 13.3923L18.208 30.2643C17.916 30.4083 17.768 30.7803 17.768 31.0683V64.8963C17.768 65.1883 17.916 65.5603 18.208 65.7043L26.208 70.3323C30.536 72.5243 33.256 69.9523 33.256 67.3923V34.0083C33.256 33.5683 33.62 33.1243 34.136 33.1243H37.88C38.312 33.1243 38.76 33.4923 38.76 34.0083V67.3963C38.76 73.1923 35.608 76.5723 30.104 76.5723C28.416 76.5723 27.096 76.5723 23.352 74.7323L15.652 70.3363C14.7138 69.7909 13.9352 69.0088 13.394 68.0682C12.8528 67.1276 12.568 66.0615 12.568 64.9763V31.1443C12.568 28.9443 13.74 26.8883 15.652 25.7883L44.916 8.84028C45.866 8.33222 46.9267 8.06641 48.004 8.06641C49.0813 8.06641 50.142 8.33222 51.092 8.84028L80.36 25.7883C82.276 26.8843 83.444 28.9443 83.444 31.1443V64.9763C83.444 67.1723 82.272 69.2283 80.36 70.3363L51.092 87.2803C50.128 87.7203 49.028 87.9403 48 87.9403ZM57.024 64.6763C44.184 64.6763 41.544 58.8043 41.544 53.8203C41.544 53.3803 41.912 52.9363 42.424 52.9363H46.24C46.68 52.9363 47.044 53.2283 47.044 53.6723C47.632 57.5563 49.316 59.4683 57.1 59.4683C63.26 59.4683 65.908 58.0683 65.908 54.7683C65.908 52.8603 65.168 51.4683 55.56 50.5163C47.564 49.7163 42.576 47.9443 42.576 41.5643C42.576 35.6243 47.564 32.1003 55.932 32.1003C65.32 32.1003 69.944 35.3363 70.528 42.3723C70.521 42.6097 70.443 42.8396 70.304 43.0323C70.156 43.1763 69.94 43.3243 69.72 43.3243H65.908C65.7196 43.3203 65.5378 43.2536 65.3915 43.1348C65.2452 43.016 65.1426 42.8519 65.1 42.6683C64.216 38.6203 61.944 37.3083 55.932 37.3083C49.176 37.3083 48.368 39.6563 48.368 41.4163C48.368 43.5403 49.316 44.2003 58.424 45.3763C67.448 46.5483 71.704 48.2363 71.704 54.5523C71.624 61.0123 66.348 64.6763 57.024 64.6763Z" fill="black"/>
</svg>
