<svg width="96" height="96" viewBox="0 0 96 96" fill="none" xmlns="http://www.w3.org/2000/svg">
<path d="M8.60002 67.12H14.88C15.0157 67.1214 15.1472 67.0735 15.2502 66.9852C15.3532 66.8969 15.4206 66.7743 15.44 66.64L16.84 59.36H21.72C23.7628 59.4111 25.801 59.1412 27.76 58.56C29.3473 58.035 30.7963 57.1602 32 56C33.0811 55.0281 33.9875 53.8782 34.68 52.6C35.3649 51.3496 35.8508 50.0001 36.12 48.6C36.545 47.1323 36.618 45.5851 36.333 44.0839C36.0481 42.5828 35.4132 41.1699 34.48 39.96C33.3987 38.8613 32.09 38.0126 30.6458 37.4736C29.2015 36.9346 27.6568 36.7183 26.12 36.84H14.12C13.9761 36.8465 13.8385 36.9014 13.7296 36.9957C13.6207 37.0901 13.5469 37.2185 13.52 37.36L8.00002 66.4C7.93887 66.568 7.93887 66.7521 8.00002 66.92C8.07634 66.9995 8.17083 67.0592 8.27535 67.094C8.37987 67.1289 8.49129 67.1378 8.60002 67.12ZM20 42.48H24C24.761 42.3778 25.5348 42.4277 26.2763 42.6268C27.0179 42.8259 27.7126 43.1703 28.32 43.64C29 44.36 29.12 45.72 28.76 47.64C28.5595 49.3577 27.7507 50.9469 26.48 52.12C24.8958 53.1231 23.0294 53.5862 21.16 53.44H17.96L20 42.48ZM59.2 38.68C57.0345 37.088 54.3532 36.3606 51.68 36.64H46.92L48.24 29.6C48.279 29.5189 48.2993 29.43 48.2993 29.34C48.2993 29.25 48.279 29.1611 48.24 29.08C48.098 29.028 47.9421 29.028 47.8 29.08H41.52C41.3844 29.0786 41.2528 29.1265 41.1498 29.2148C41.0468 29.3031 40.9794 29.4258 40.96 29.56L35.44 58.64C35.4015 58.7141 35.3813 58.7965 35.3813 58.88C35.3813 58.9636 35.4015 59.0459 35.44 59.12C35.4872 59.1938 35.5523 59.2546 35.6292 59.2965C35.7061 59.3385 35.7924 59.3603 35.88 59.36H42.04C42.1819 59.3604 42.3186 59.3069 42.4225 59.2104C42.5264 59.1139 42.5899 58.9815 42.6 58.84L45.68 42.56H50.12C51.92 42.56 52.56 42.96 52.76 43.2C52.9229 43.5931 53.0067 44.0145 53.0067 44.44C53.0067 44.8655 52.9229 45.2869 52.76 45.68L50.32 58.64C50.2815 58.7141 50.2613 58.7965 50.2613 58.88C50.2613 58.9636 50.2815 59.0459 50.32 59.12C50.3697 59.1914 50.4353 59.2503 50.5117 59.292C50.588 59.3336 50.6731 59.3569 50.76 59.36H57C57.144 59.3535 57.2815 59.2987 57.3904 59.2043C57.4993 59.1099 57.5731 58.9816 57.6 58.84L60.16 45.24C60.5731 44.1555 60.7017 42.9834 60.5336 41.8351C60.3656 40.6868 59.9065 39.6007 59.2 38.68ZM77.28 36.64H64.76C64.6864 36.6346 64.6125 36.6437 64.5425 36.6669C64.4724 36.6902 64.4077 36.727 64.3519 36.7753C64.2962 36.8236 64.2505 36.8825 64.2176 36.9485C64.1846 37.0145 64.1651 37.0864 64.16 37.16L58.32 66.4C58.2836 66.4819 58.2648 66.5704 58.2648 66.66C58.2648 66.7496 58.2836 66.8382 58.32 66.92C58.3738 66.9841 58.4412 67.0353 58.5173 67.0699C58.5935 67.1045 58.6764 67.1217 58.76 67.12H65.28C65.4224 67.1316 65.5638 67.0884 65.6753 66.9991C65.7869 66.9099 65.8601 66.7814 65.88 66.64L67.36 59.36H72.44C74.5483 59.4064 76.6516 59.1367 78.68 58.56C80.4265 58.0742 82.0402 57.1989 83.4 56C84.5166 55.031 85.4631 53.8817 86.2 52.6C86.8977 51.3514 87.397 50.002 87.68 48.6C88.116 47.131 88.191 45.5784 87.8985 44.0742C87.606 42.57 86.9547 41.1586 86 39.96C84.8691 38.8145 83.5052 37.9252 82.0008 37.3524C80.4964 36.7797 78.8865 36.5367 77.28 36.64ZM79.76 47.72C79.5208 49.4521 78.6694 51.0412 77.36 52.2C75.7186 53.2076 73.8002 53.6697 71.88 53.52H68.68L70.84 42.48H74.84C76.439 42.284 78.053 42.6983 79.36 43.64C80 44.36 80 45.72 79.76 47.72Z" fill="black"/>
</svg>
