<svg width="96" height="96" viewBox="0 0 96 96" fill="none" xmlns="http://www.w3.org/2000/svg">
<path d="M22.5 15C18.3984 15 15 18.3984 15 22.5V73.5C15 77.6016 18.3984 81 22.5 81H73.5C77.6016 81 81 77.6016 81 73.5V22.5C81 18.3984 77.6016 15 73.5 15H22.5ZM22.5 21H73.5C74.3555 21 75 21.6445 75 22.5V73.5C75 74.3555 74.3555 75 73.5 75H22.5C21.6445 75 21 74.3555 21 73.5V22.5C21 21.6445 21.6445 21 22.5 21ZM31.3125 26.1562C28.4648 26.1562 26.1562 28.4648 26.1562 31.3125C26.1562 34.1602 28.4648 36.4688 31.3125 36.4688C34.1602 36.4688 36.4688 34.1602 36.4688 31.3125C36.4688 28.4648 34.1602 26.1562 31.3125 26.1562ZM58.4062 39.8438C54.1055 39.8438 51.2461 42.1992 50.0625 44.4375H49.875V40.5H41.4375V69H50.25V54.9375C50.25 51.2227 50.9883 47.625 55.5938 47.625C60.1289 47.625 60.1875 51.8203 60.1875 55.125V69H69V53.3438C69 45.6797 67.3711 39.8438 58.4062 39.8438ZM27 40.5V69H35.9062V40.5H27Z" fill="#0D1821"/>
</svg>
