<svg width="96" height="96" viewBox="0 0 96 96" fill="none" xmlns="http://www.w3.org/2000/svg">
<path d="M94.578 21.7193C94.608 21.8453 94.626 21.9863 94.626 22.1093V42.7193C94.6267 42.9823 94.5576 43.2408 94.4259 43.4685C94.2942 43.6962 94.1044 43.8848 93.876 44.0153L76.578 53.9843V73.7183C76.5787 73.9813 76.5097 74.2398 76.3779 74.4675C76.2462 74.6952 76.0564 74.8838 75.828 75.0143L39.72 95.7953C39.6357 95.842 39.5461 95.8783 39.453 95.9033L39.36 95.9513C39.1089 96.0143 38.8461 96.0143 38.595 95.9513C38.5571 95.94 38.5208 95.9238 38.487 95.9033C38.4003 95.8764 38.3168 95.8402 38.238 95.7953L2.145 75.0143C1.91503 74.8843 1.72329 74.6962 1.58902 74.4687C1.45474 74.2412 1.38266 73.9824 1.38 73.7183V11.8913C1.38 11.7653 1.41 11.6243 1.443 11.5013C1.458 11.4533 1.473 11.4233 1.491 11.3753L1.584 11.1413C1.599 11.0933 1.647 11.0633 1.677 11.0153L1.818 10.8263C1.86851 10.7951 1.91575 10.7589 1.959 10.7183C2.022 10.6703 2.067 10.6253 2.13 10.5923L20.178 0.200282C20.4062 0.0692145 20.6648 0.000244141 20.928 0.000244141C21.1912 0.000244141 21.4498 0.0692145 21.678 0.200282L39.741 10.5923C39.804 10.6223 39.849 10.6703 39.897 10.7183L40.053 10.8263C40.0991 10.8864 40.1412 10.9496 40.179 11.0153C40.209 11.0453 40.257 11.0933 40.287 11.1413L40.38 11.3753C40.395 11.4233 40.428 11.4533 40.428 11.5013C40.4734 11.6261 40.4948 11.7585 40.491 11.8913V50.5013L55.521 41.8463V22.1123C55.5266 21.935 55.5642 21.7602 55.632 21.5963L55.725 21.3623C55.755 21.2993 55.803 21.2693 55.833 21.2213C55.881 21.1583 55.911 21.0953 55.959 21.0503C56.007 21.0053 56.067 20.9723 56.115 20.9423C56.1601 20.8923 56.2127 20.8498 56.271 20.8163L74.334 10.4243C74.5597 10.2858 74.8193 10.2125 75.084 10.2125C75.3488 10.2125 75.6084 10.2858 75.834 10.4243L93.882 20.8163C93.945 20.8463 93.99 20.8943 94.053 20.9423C94.101 20.9723 94.146 21.0053 94.194 21.0503C94.242 21.0953 94.287 21.1583 94.335 21.2213C94.365 21.2693 94.413 21.2993 94.428 21.3623C94.476 21.4403 94.491 21.5183 94.521 21.5963C94.551 21.6263 94.569 21.6743 94.584 21.7223L94.578 21.7193ZM91.608 41.8433V24.7193L85.296 28.3433L76.578 33.3743V50.4983L91.608 41.8433ZM73.578 72.8423V55.7003L64.983 60.5903L40.482 74.5913V91.8893L73.578 72.8423ZM4.374 14.4983V72.8423L37.467 91.8893V74.5913L20.169 64.7933C20.106 64.7633 20.061 64.7153 20.013 64.6673C19.965 64.6373 19.905 64.6043 19.872 64.5593H19.857C19.809 64.5113 19.779 64.4513 19.731 64.4033C19.701 64.3553 19.653 64.3103 19.623 64.2473C19.5881 64.1884 19.5618 64.1247 19.545 64.0583C19.515 63.9953 19.482 63.9503 19.467 63.8873C19.452 63.8243 19.437 63.7463 19.437 63.6683C19.422 63.6053 19.407 63.5603 19.407 63.4973V23.1533L10.689 18.1223L4.374 14.4983ZM20.922 3.23328L5.892 11.8883L20.922 20.5433L35.952 11.8883L20.922 3.23328ZM28.749 57.2663L37.467 52.2353V14.5013L31.155 18.1253L22.422 23.1563V60.8903L28.749 57.2663ZM75.078 13.4513L60.03 22.1063L75.078 30.7613L90.108 22.1063L75.078 13.4513ZM73.578 33.3743L58.53 24.7193V41.8433L67.248 46.8743L73.575 50.4983L73.578 33.3743ZM38.97 71.9843L72.048 53.1083L57.033 44.4533L23.97 63.4853L38.97 71.9843Z" fill="black"/>
</svg>
