<svg width="96" height="96" viewBox="0 0 96 96" fill="none" xmlns="http://www.w3.org/2000/svg">
<path d="M86.48 44.4321L51.556 9.51611C50.5875 8.552 49.2766 8.01074 47.91 8.01074C46.5434 8.01074 45.2325 8.552 44.264 9.51611L37.028 16.7601L46.224 25.9601C47.309 25.5935 48.475 25.5383 49.5898 25.8007C50.7046 26.0631 51.7235 26.6327 52.531 27.4448C53.3386 28.2569 53.9024 29.279 54.1585 30.3953C54.4146 31.5115 54.3527 32.6772 53.98 33.7601L62.836 42.6281C64.1472 42.168 65.5758 42.1679 66.8871 42.6276C68.1984 43.0873 69.3142 43.9796 70.051 45.1577C70.7878 46.3358 71.1018 47.7295 70.9414 49.1097C70.7809 50.49 70.1555 51.7745 69.168 52.7521C66.772 55.1521 62.904 55.1521 60.504 52.7521C59.6515 51.8987 59.0691 50.8132 58.8294 49.631C58.5897 48.4488 58.7033 47.2222 59.156 46.1041L50.86 37.8521V59.6001C51.444 59.8841 52.004 60.2761 52.488 60.7601C53.6316 61.9118 54.2735 63.469 54.2735 65.0921C54.2735 66.7152 53.6316 68.2724 52.488 69.4241C51.9173 69.9957 51.2396 70.4491 50.4935 70.7585C49.7474 71.0679 48.9477 71.2272 48.14 71.2272C47.3323 71.2272 46.5326 71.0679 45.7865 70.7585C45.0404 70.4491 44.3627 69.9957 43.792 69.4241C43.2226 68.8563 42.7708 68.1818 42.4626 67.4391C42.1543 66.6964 41.9957 65.9002 41.9957 65.0961C41.9957 64.292 42.1543 63.4958 42.4626 62.7531C42.7708 62.0104 43.2226 61.3359 43.792 60.7681C44.4 60.1681 45.08 59.7121 45.808 59.4121V37.4521C45.0601 37.1459 44.3803 36.6945 43.8079 36.124C43.2355 35.5535 42.7818 34.8753 42.4731 34.1284C42.1644 33.3816 42.0068 32.5809 42.0093 31.7728C42.0119 30.9646 42.1746 30.165 42.488 29.4201L33.448 20.3361L9.5 44.2641C7.5 46.2801 7.5 49.5441 9.5 51.5601L44.424 86.4761C44.9018 86.9552 45.4695 87.3352 46.0944 87.5946C46.7194 87.8539 47.3894 87.9874 48.066 87.9874C48.7426 87.9874 49.4126 87.8539 50.0376 87.5946C50.6625 87.3352 51.2302 86.9552 51.708 86.4761L86.468 51.7201C86.9494 51.2435 87.3318 50.6764 87.5931 50.0515C87.8544 49.4265 87.9895 48.756 87.9906 48.0786C87.9918 47.4012 87.8589 46.7303 87.5996 46.1044C87.3403 45.4786 86.9598 44.9103 86.48 44.4321Z" fill="#0D1821"/>
</svg>
