<svg width="96" height="96" viewBox="0 0 96 96" fill="none" xmlns="http://www.w3.org/2000/svg">
<g clip-path="url(#clip0)">
<path d="M70.332 0.251551C68.8067 0.230462 67.3307 0.791136 66.204 1.81955C66.2027 1.81955 66.2013 1.81955 66.2 1.81955C66.1311 1.87698 66.0643 1.93702 66 1.99955L34.112 37.2635L15.5 21.9995L13.872 20.5996C13.3105 20.1328 12.632 19.8287 11.9099 19.7201C11.1879 19.6115 10.4499 19.7026 9.776 19.9835C9.75996 19.9901 9.74396 19.9968 9.728 20.0035L2.46 23.0035C2.35534 23.0472 2.25258 23.0952 2.152 23.1476C2.08832 23.1832 2.02563 23.2205 1.964 23.2596C1.9127 23.2878 1.86202 23.3171 1.812 23.3475C1.74668 23.391 1.68265 23.4363 1.62 23.4835C1.57939 23.5148 1.53938 23.5468 1.5 23.5795C1.43998 23.6259 1.38129 23.6739 1.324 23.7236C1.27493 23.7664 1.22692 23.8104 1.18 23.8556C1.13623 23.9012 1.09355 23.9479 1.052 23.9956C1.00673 24.0451 0.962718 24.0958 0.92 24.1476C0.871693 24.2049 0.825008 24.2636 0.78 24.3235C0.74706 24.3682 0.715053 24.4136 0.684 24.4595C0.639364 24.5249 0.596678 24.5916 0.556 24.6595C0.528395 24.7057 0.501723 24.7523 0.476 24.7995C0.442157 24.8653 0.410145 24.932 0.38 24.9995C0.35186 25.0589 0.325185 25.1189 0.3 25.1796C0.277296 25.2377 0.255957 25.2964 0.236 25.3556C0.213114 25.4177 0.191774 25.4804 0.172 25.5436C0.149913 25.6163 0.129905 25.6897 0.112 25.7635C0.0975685 25.8166 0.0842323 25.8699 0.072 25.9235C0.0593697 25.9952 0.0486991 26.0673 0.04 26.1395C0.0303224 26.206 0.0223198 26.2727 0.016 26.3396C0.00606899 26.4499 0.000731047 26.5607 0 26.6716L0 69.3355C0.00465259 70.1209 0.24041 70.8876 0.677872 71.5398C1.11533 72.1921 1.73514 72.7012 2.46 73.0035L9.728 76.0595C10.4112 76.3439 11.1599 76.4331 11.8908 76.3173C12.6217 76.2014 13.3061 75.8851 13.868 75.4035L15.5 74.0035L34.112 58.7435L66.004 94.0035C66.0972 94.0933 66.1932 94.18 66.292 94.2635C66.3663 94.3321 66.4423 94.3988 66.52 94.4635C66.596 94.5214 66.6733 94.5774 66.752 94.6316C66.8345 94.6924 66.9185 94.751 67.004 94.8075C67.0894 94.8604 67.1761 94.9111 67.264 94.9595C67.3495 95.0097 67.4362 95.0577 67.524 95.1035C67.6136 95.1471 67.7043 95.1885 67.796 95.2275C67.8883 95.2699 67.9817 95.3099 68.076 95.3475C68.1725 95.3834 68.2698 95.4167 68.368 95.4475C68.4554 95.4762 68.5434 95.5029 68.632 95.5275C68.7379 95.5571 68.8446 95.5838 68.952 95.6076C69.0422 95.6283 69.1329 95.647 69.224 95.6636C69.3236 95.6794 69.4237 95.6927 69.524 95.7036C69.6237 95.7167 69.7237 95.7274 69.824 95.7355C69.9212 95.7419 70.0186 95.7459 70.116 95.7476C70.2187 95.7502 70.3214 95.7502 70.424 95.7476C70.5282 95.7436 70.6322 95.7369 70.736 95.7275C70.8255 95.7202 70.9149 95.7109 71.004 95.6995C71.1206 95.683 71.2366 95.663 71.352 95.6395C71.4323 95.6252 71.5123 95.6092 71.592 95.5916C71.6995 95.5652 71.8062 95.5358 71.912 95.5035C72.0033 95.479 72.094 95.4524 72.184 95.4236C72.2783 95.3886 72.3716 95.3512 72.464 95.3115C72.5856 95.2661 72.7056 95.2168 72.824 95.1636L92.6 85.6555C93.3254 85.3056 93.973 84.8131 94.504 84.2076C94.6311 84.0641 94.7512 83.9146 94.864 83.7596C94.8694 83.7502 94.8747 83.7409 94.88 83.7316C94.9949 83.5703 95.1016 83.4034 95.2 83.2316C95.2898 83.0754 95.3726 82.9152 95.448 82.7515C95.4601 82.729 95.4721 82.7063 95.484 82.6835C95.5428 82.5416 95.5962 82.3975 95.644 82.2515C95.6646 82.2025 95.6847 82.1531 95.704 82.1035C95.7493 81.9624 95.7893 81.8196 95.824 81.6756C95.8366 81.6264 95.8486 81.577 95.86 81.5275C95.8872 81.395 95.9099 81.2616 95.928 81.1275C95.9398 81.0611 95.9505 80.9944 95.96 80.9276C95.9716 80.8078 95.9796 80.6878 95.984 80.5676C95.9922 80.461 95.9975 80.3543 96 80.2476V15.7676C96 15.7636 96 15.7596 96 15.7556C96.0005 15.7129 96.0005 15.6702 96 15.6276C95.9967 15.427 95.9834 15.2268 95.96 15.0276C95.8376 14.0282 95.4656 13.0757 94.8785 12.2579C94.2913 11.44 93.5077 10.7831 92.6 10.3476L72.824 0.839551C72.0462 0.468471 71.1976 0.269287 70.336 0.255551L70.332 0.251551ZM72 27.6796V68.3316L47.208 48.0116L72 27.6796ZM12 34.2956L24.396 48.0036L11.996 61.7076L12 34.2956Z" fill="#0D1821"/>
</g>
<defs>
<clipPath id="clip0">
<rect width="96" height="96" fill="white"/>
</clipPath>
</defs>
</svg>
