<svg width="96" height="96" viewBox="0 0 96 96" fill="none" xmlns="http://www.w3.org/2000/svg">
<path d="M0.912244 33.4796C0.912244 33.4796 -1.42376 31.7716 1.38024 29.4996L7.92024 23.5876C7.92024 23.5876 9.78824 21.5996 11.7682 23.3316L72.0922 69.4996V91.6356C72.0922 91.6356 72.0642 95.1156 67.6522 94.7316L0.908244 33.4756L0.912244 33.4796Z" fill="#0D1821"/>
<path d="M16.464 47.748L0.911978 62.036C0.911978 62.036 -0.688022 63.236 0.911978 65.384L8.13198 72.024C8.13198 72.024 9.84798 73.884 12.38 71.764L28.864 59.132L16.464 47.748Z" fill="#0D1821"/>
<path d="M43.76 47.8641L72.28 25.8561L72.092 3.83612C72.092 3.83612 70.872 -0.971878 66.812 1.53212L28.864 36.4401L43.76 47.8641Z" fill="#0D1821"/>
<path d="M67.648 94.7602C69.304 96.4722 71.312 95.9122 71.312 95.9122L93.536 84.8442C96.38 82.8842 95.98 80.4522 95.98 80.4522V14.3522C95.98 11.4482 93.04 10.4442 93.04 10.4442L73.776 1.05619C69.568 -1.57181 66.812 1.53219 66.812 1.53219C66.812 1.53219 70.356 -1.04781 72.092 3.83619V91.2362C72.092 91.8362 71.964 92.4242 71.712 92.9562C71.204 93.9922 70.104 94.9562 67.464 94.5562L67.648 94.7602Z" fill="#0D1821"/>
</svg>
