<svg width="96" height="96" viewBox="0 0 96 96" fill="none" xmlns="http://www.w3.org/2000/svg">
<path d="M44 8H52V16H54C55.5913 16 57.1174 16.6321 58.2426 17.7574C59.3679 18.8826 60 20.4087 60 22V36L58.24 37.76L64.8 49.12C69.24 44.76 72 38.72 72 32H80C80 41.68 75.72 50.36 68.92 56.24L81.48 78L82 86.88L74.52 82L62.24 60.68C58 62.8 53.12 64 48 64C42.88 64 38 62.8 33.76 60.68L21.48 82L14 86.88L14.52 78L37.76 37.76L36 36V22C36 20.4087 36.6321 18.8826 37.7574 17.7574C38.8826 16.6321 40.4087 16 42 16H44V8ZM37.76 53.72C40.88 55.2 44.36 56 48 56C51.64 56 55.12 55.2 58.24 53.72L52.4 43.6H52.36C49.88 46 46.12 46 43.64 43.6H43.6L37.76 53.72ZM48 24C46.9391 24 45.9217 24.4214 45.1716 25.1716C44.4214 25.9217 44 26.9391 44 28C44 29.0609 44.4214 30.0783 45.1716 30.8284C45.9217 31.5786 46.9391 32 48 32C49.0609 32 50.0783 31.5786 50.8284 30.8284C51.5786 30.0783 52 29.0609 52 28C52 26.9391 51.5786 25.9217 50.8284 25.1716C50.0783 24.4214 49.0609 24 48 24Z" fill="#0D1821"/>
</svg>
