<svg width="96" height="96" viewBox="0 0 96 96" fill="none" xmlns="http://www.w3.org/2000/svg">
<path d="M63.408 35.924H45.056V0H63.408C73.312 0 81.368 8.056 81.368 17.96C81.368 27.864 73.312 35.924 63.408 35.924ZM50.94 30.04H63.408C70.068 30.04 75.484 24.62 75.484 17.964C75.484 11.308 70.064 5.888 63.408 5.888H50.94V30.04ZM50.94 35.924H32.592C22.688 35.924 14.632 27.868 14.632 17.964C14.632 8.06 22.688 0 32.592 0H50.944V35.924H50.94ZM32.592 5.884C25.932 5.884 20.516 11.304 20.516 17.96C20.516 24.616 25.932 30.04 32.592 30.04H45.06V5.884H32.592ZM50.94 65.96H32.592C22.688 65.96 14.632 57.904 14.632 48C14.632 38.096 22.688 30.04 32.592 30.04H50.944V65.96H50.94ZM32.592 35.924C25.932 35.924 20.516 41.344 20.516 48C20.516 54.656 25.936 60.076 32.592 60.076H45.06V35.924H32.592ZM32.688 96C22.732 96 14.628 87.944 14.628 78.04C14.628 68.136 22.684 60.08 32.588 60.08H50.94V77.844C50.94 87.856 42.752 96 32.688 96ZM32.592 65.96C29.3905 65.9642 26.3214 67.2379 24.0576 69.5017C21.7939 71.7654 20.5202 74.8345 20.516 78.036C20.516 84.696 25.976 90.112 32.692 90.112C39.512 90.112 45.064 84.608 45.064 77.84V65.96H32.592ZM63.408 65.96H63.016C53.112 65.96 45.056 57.904 45.056 48C45.056 38.096 53.112 30.04 63.016 30.04H63.408C73.312 30.04 81.368 38.096 81.368 48C81.368 57.904 73.312 65.96 63.408 65.96ZM63.02 35.924C56.36 35.924 50.944 41.344 50.944 48C50.944 54.656 56.364 60.076 63.02 60.076H63.412C70.072 60.076 75.488 54.656 75.488 48C75.488 41.344 70.068 35.924 63.412 35.924H63.02Z" fill="#0D1821"/>
</svg>
