<svg width="96" height="96" viewBox="0 0 96 96" fill="none" xmlns="http://www.w3.org/2000/svg">
<path d="M0 0V96H96V0H0ZM14.892 12.444H34.892V19.78H29.332V44.888H34.892V52.224H14.892V44.888H20.668V19.78H14.892V12.444ZM59.112 12.444H68V38.444C68 40.892 67.78 42.888 67.112 44.668C66.444 46.444 65.552 47.776 64.22 49.108C63.112 50.224 61.556 51.336 59.78 51.78C57.9404 52.511 55.9795 52.8883 54 52.892C50.888 52.892 48.224 52.224 46.224 51.112C44.2869 50.0109 42.5559 48.5816 41.108 46.888L46.668 40.668C47.6032 41.8162 48.7306 42.7933 50 43.556C51.108 44.224 52.444 44.668 53.78 44.668C55.336 44.668 56.664 44.224 57.78 43.112C58.664 42 59.112 40.444 59.112 38V12.444ZM8.888 78H44.888V84H8.888V78Z" fill="#0D1821"/>
</svg>
