<svg width="96" height="96" viewBox="0 0 96 96" fill="none" xmlns="http://www.w3.org/2000/svg">
<g clip-path="url(#clip0)">
<path d="M50.016 0C49.396 0 48.756 0.032 48.096 0.084C31.192 1.416 35.676 19.312 35.416 25.276C35.112 29.644 34.216 33.088 31.216 37.356C27.676 41.56 22.708 48.356 20.352 55.44C19.24 58.768 18.712 62.176 19.204 65.396C19.0216 65.5436 18.8717 65.7275 18.764 65.936C17.724 67.008 16.964 68.336 16.112 69.292C15.316 70.088 14.172 70.36 12.924 70.892C11.672 71.436 10.292 71.968 9.46802 73.612C9.10802 74.368 8.92401 75.188 8.94001 76.02C8.94001 76.816 9.04802 77.62 9.16002 78.164C9.39202 79.76 9.62401 81.076 9.32001 82.044C8.32401 84.764 8.20002 86.624 8.89602 87.98C9.59202 89.316 11.036 89.86 12.656 90.384C15.896 91.184 20.296 90.924 23.752 92.784C27.456 94.648 31.216 95.464 34.216 94.664C36.32 94.2 38.096 92.808 39.048 90.88C41.396 90.868 43.968 89.804 48.088 89.544C50.884 89.312 54.384 90.612 58.396 90.344C58.496 90.88 58.648 91.136 58.852 91.676L58.864 91.688C60.428 94.8 63.316 96.216 66.4 95.972C69.484 95.732 72.768 93.828 75.428 90.748C77.952 87.688 82.16 86.412 84.94 84.736C86.332 83.94 87.456 82.86 87.536 81.324C87.628 79.724 86.736 78.08 84.68 75.82V75.432L84.668 75.42C83.988 74.62 83.668 73.28 83.316 71.716C82.976 70.112 82.588 68.572 81.348 67.532H81.336C81.1 67.316 80.844 67.264 80.584 66.992C80.3603 66.8358 80.0966 66.747 79.824 66.736C81.548 61.624 80.88 56.536 79.132 51.96C77 46.32 73.272 41.408 70.432 38.028C67.248 34.008 64.128 30.2 64.192 24.556C64.296 15.948 65.136 0.024 50.016 0V0ZM52.132 13.62H52.184C53.036 13.62 53.768 13.868 54.52 14.412C55.28 14.952 55.84 15.74 56.272 16.544C56.692 17.58 56.904 18.38 56.936 19.44C56.936 19.36 56.96 19.28 56.96 19.2V19.62C56.9512 19.5928 56.9458 19.5646 56.944 19.536L56.928 19.44C56.92 20.4121 56.7159 21.3726 56.328 22.264C56.1412 22.7655 55.8509 23.2221 55.476 23.604C55.3627 23.54 55.2451 23.4839 55.124 23.436C54.708 23.256 54.332 23.18 53.988 22.904C53.703 22.7904 53.4085 22.7021 53.108 22.64C53.308 22.4 53.692 22.108 53.84 21.848C54.052 21.336 54.168 20.792 54.192 20.24V20.16C54.2011 19.6168 54.1186 19.0759 53.948 18.56C53.768 18.024 53.544 17.76 53.216 17.228C52.88 16.964 52.548 16.7 52.148 16.7H52.084C51.712 16.7 51.38 16.82 51.036 17.228C50.6561 17.5985 50.3744 18.0576 50.216 18.564C50.0036 19.0722 49.8817 19.6137 49.856 20.164V20.24C49.864 20.596 49.888 20.956 49.936 21.308C49.164 21.04 48.184 20.768 47.508 20.5C47.4676 20.2351 47.4436 19.9679 47.436 19.7V19.62C47.4046 18.5641 47.6096 17.5145 48.036 16.548C48.3629 15.6696 48.9666 14.9213 49.756 14.416C50.4398 13.8977 51.274 13.6169 52.132 13.616V13.62ZM40.284 13.856H40.428C40.996 13.856 41.508 14.048 42.024 14.396C42.608 14.912 43.08 15.548 43.4 16.256C43.76 17.052 43.96 17.856 44.012 18.924V18.94C44.04 19.476 44.036 19.74 44.004 20.004V20.324C43.884 20.352 43.78 20.396 43.672 20.42C43.064 20.64 42.576 20.96 42.1 21.22C42.148 20.86 42.152 20.5 42.112 20.152V20.092C42.064 19.56 41.952 19.292 41.784 18.76C41.6593 18.3523 41.4304 17.9842 41.12 17.692C41.0214 17.6024 40.9058 17.5335 40.7801 17.4895C40.6543 17.4455 40.521 17.4273 40.388 17.436H40.304C40.02 17.46 39.784 17.596 39.56 17.964C39.3049 18.2737 39.1389 18.6471 39.08 19.044C38.9719 19.4752 38.9407 19.922 38.988 20.364V20.424C39.036 20.964 39.136 21.224 39.308 21.76C39.492 22.296 39.7 22.56 39.972 22.832C40.012 22.868 40.052 22.904 40.108 22.928C39.828 23.156 39.64 23.208 39.404 23.472C39.2543 23.6043 39.0744 23.6978 38.88 23.744C38.4642 23.2433 38.096 22.705 37.78 22.136C37.4018 21.2954 37.1912 20.3892 37.16 19.468C37.0938 18.565 37.2024 17.6578 37.48 16.796C37.7003 16.0101 38.0863 15.2804 38.612 14.656C39.124 14.124 39.652 13.856 40.284 13.856ZM45.764 20.68C47.092 20.68 48.696 20.94 50.628 22.276C51.8 23.076 52.72 23.352 54.836 24.148H54.848C55.868 24.692 56.468 25.212 56.76 25.744V25.22C56.9036 25.5109 56.9835 25.8289 56.9945 26.1531C57.0056 26.4773 56.9474 26.8001 56.824 27.1C56.332 28.34 54.76 29.672 52.572 30.468V30.476C51.5 31.016 50.568 31.808 49.472 32.336C48.368 32.876 47.12 33.504 45.424 33.404C44.8148 33.4355 44.2054 33.3444 43.632 33.136C43.189 32.895 42.759 32.6306 42.344 32.344C41.564 31.804 40.892 31.016 39.896 30.484V30.464H39.876C38.276 29.48 37.412 28.416 37.132 27.624C36.852 26.552 37.112 25.744 37.904 25.224C38.8 24.684 39.424 24.14 39.836 23.88C40.252 23.584 40.408 23.472 40.54 23.356H40.548V23.344C41.224 22.536 42.292 21.464 43.904 20.94C44.46 20.796 45.08 20.68 45.768 20.68H45.764ZM56.964 29.248C58.396 34.916 61.748 43.148 63.904 47.14C65.048 49.276 67.324 53.776 68.312 59.236C68.936 59.216 69.632 59.308 70.364 59.492C72.948 52.808 68.18 45.624 66.008 43.628C65.128 42.828 65.08 42.288 65.516 42.288C67.876 44.424 70.976 48.576 72.1 53.316C72.62 55.456 72.74 57.732 72.184 59.996C72.452 60.108 72.724 60.236 73.004 60.264C77.132 62.4 78.656 64.016 77.924 66.412V66.24C77.684 66.228 77.444 66.24 77.204 66.24H77.14C77.744 64.372 76.412 62.94 72.88 61.344C69.22 59.744 66.296 60 65.8 63.204C65.768 63.376 65.748 63.468 65.728 63.744C65.456 63.836 65.172 63.956 64.892 64C63.172 65.072 62.244 66.676 61.72 68.748C61.2 70.88 61.04 73.372 60.9 76.224V76.236C60.82 77.572 60.22 79.588 59.624 81.636C53.624 85.924 45.304 87.788 38.232 82.972C37.7882 82.1963 37.2479 81.4799 36.624 80.84C36.3259 80.3436 35.9551 79.8946 35.524 79.508C36.252 79.508 36.876 79.388 37.384 79.24C37.9592 78.9732 38.4092 78.4946 38.64 77.904C39.072 76.836 38.64 75.116 37.26 73.252C35.88 71.384 33.536 69.272 30.108 67.168C27.588 65.568 26.164 63.688 25.508 61.584C24.848 59.448 24.936 57.244 25.448 55.004C26.428 50.724 28.94 46.564 30.544 43.952C30.972 43.692 30.692 44.492 28.912 47.848C27.328 50.852 24.352 57.836 28.424 63.264C28.5778 59.3036 29.4549 55.4047 31.012 51.76C33.268 46.648 37.984 37.744 38.356 30.688C38.548 30.832 39.224 31.228 39.512 31.496C40.384 32.028 41.032 32.828 41.872 33.356C42.712 34.16 43.78 34.696 45.376 34.696C45.532 34.708 45.676 34.72 45.816 34.72C47.464 34.72 48.736 34.184 49.804 33.648C50.964 33.112 51.884 32.312 52.764 32.048H52.784C54.652 31.508 56.124 30.44 56.96 29.248H56.964ZM65.704 65.08C65.852 67.48 67.076 70.06 69.232 70.588C71.584 71.124 74.968 69.256 76.396 67.528L77.24 67.488C78.5 67.46 79.548 67.528 80.628 68.56L80.64 68.572C81.472 69.368 81.86 70.692 82.204 72.076C82.544 73.676 82.82 75.196 83.84 76.34C85.784 78.448 86.42 79.964 86.384 80.9L86.396 80.872V80.944L86.384 80.896C86.324 81.944 85.644 82.48 84.392 83.276C81.872 84.88 77.408 86.124 74.564 89.556C72.092 92.504 69.084 94.116 66.42 94.32C63.764 94.532 61.472 93.52 60.124 90.728L60.104 90.716C59.264 89.116 59.624 86.616 60.328 83.956C61.032 81.284 62.04 78.58 62.18 76.368C62.328 73.512 62.484 71.028 62.96 69.112C63.44 67.252 64.192 65.924 65.524 65.176L65.704 65.088V65.08ZM22.448 65.276H22.488C22.7 65.276 22.908 65.296 23.116 65.332C24.62 65.552 25.94 66.664 27.208 68.34L30.848 74.996L30.86 75.008C31.832 77.14 33.876 79.264 35.616 81.556C37.352 83.948 38.696 86.08 38.532 87.836V87.86C38.304 90.836 36.612 92.452 34.032 93.036C31.452 93.576 27.952 93.044 24.452 91.18C20.58 89.036 15.98 89.304 13.024 88.772C11.548 88.508 10.584 87.972 10.132 87.172C9.69202 86.372 9.68001 84.764 10.624 82.252V82.236L10.632 82.224C11.1 80.888 10.752 79.216 10.524 77.752C10.304 76.148 10.192 74.912 10.696 73.992C11.336 72.656 12.28 72.392 13.456 71.86C14.632 71.32 16.016 71.052 17.116 69.98H17.124V69.972C18.148 68.9 18.904 67.568 19.796 66.62C20.556 65.816 21.316 65.276 22.448 65.276ZM51.084 28.98C49.344 29.784 47.304 31.12 45.132 31.12C42.964 31.12 41.252 30.052 40.012 29.256C39.396 28.72 38.892 28.184 38.52 27.916C37.864 27.38 37.944 26.584 38.224 26.584C38.66 26.648 38.74 27.12 39.02 27.384C39.404 27.648 39.88 28.184 40.46 28.716C41.628 29.516 43.18 30.584 45.128 30.584C47.068 30.584 49.34 29.516 50.72 28.72C51.5 28.18 52.5 27.384 53.312 26.852C53.936 26.308 53.908 25.784 54.428 25.784C54.94 25.848 54.564 26.32 53.84 27.112C52.9528 27.783 52.0316 28.4078 51.08 28.984L51.084 28.98ZM46.756 22.648V22.56C46.732 22.48 46.808 22.392 46.872 22.36C47.168 22.188 47.592 22.252 47.912 22.376C48.164 22.376 48.552 22.644 48.512 22.916C48.488 23.112 48.172 23.18 47.972 23.18C47.752 23.18 47.604 23.008 47.408 22.908C47.2 22.836 46.824 22.876 46.756 22.648ZM44.552 22.648C44.472 22.88 44.1 22.844 43.888 22.912C43.7 23.012 43.544 23.184 43.328 23.184C43.128 23.184 42.808 23.104 42.784 22.912C42.744 22.648 43.136 22.38 43.384 22.38C43.704 22.256 44.12 22.192 44.42 22.36C44.496 22.396 44.564 22.48 44.54 22.56V22.64H44.552V22.648Z" fill="#0D1821"/>
</g>
<defs>
<clipPath id="clip0">
<rect width="96" height="96" fill="white"/>
</clipPath>
</defs>
</svg>
