<svg width="96" height="96" viewBox="0 0 96 96" fill="none" xmlns="http://www.w3.org/2000/svg">
<g clip-path="url(#clip0)">
<path d="M17.8361 16.8313C20.8201 19.2553 21.9401 19.0713 27.5481 18.6952L80.4081 15.5233C81.5281 15.5233 80.5961 14.4033 80.2241 14.2193L71.4401 7.87125C69.7601 6.56725 67.5161 5.07125 63.2201 5.44325L12.0401 9.17925C10.1761 9.36325 9.80005 10.2993 10.5441 11.0433L17.8361 16.8313ZM21.0081 29.1513V84.7672C21.0081 87.7552 22.5001 88.8753 25.8641 88.6872L83.9561 85.3272C87.3201 85.1432 87.6961 83.0872 87.6961 80.6592V25.4153C87.6961 22.9913 86.7641 21.6833 84.7041 21.8673L23.9961 25.4153C21.7561 25.6033 21.0081 26.7233 21.0081 29.1473V29.1513ZM78.3561 32.1312C78.7281 33.8112 78.3561 35.4912 76.6761 35.6832L73.8761 36.2432V77.2992C71.4441 78.6073 69.2041 79.3552 67.3361 79.3552C64.3441 79.3552 63.5961 78.4193 61.3561 75.6232L43.0481 46.8792V74.6872L48.8401 75.9992C48.8401 75.9992 48.8401 79.3592 44.1681 79.3592L31.2801 80.1032C30.9081 79.3592 31.2801 77.4912 32.5881 77.1192L35.9481 76.1872V39.4152L31.2881 39.0392C30.9121 37.3593 31.8481 34.9353 34.4601 34.7472L48.2841 33.8153L67.34 62.9312V37.1712L62.4801 36.6152C62.1081 34.5592 63.6001 33.0672 65.4681 32.8832L78.3561 32.1312ZM7.74405 4.13925L60.9841 0.219252C67.5201 -0.340748 69.204 0.0312519 73.312 3.01925L90.3081 14.9633C93.1081 17.0153 94.0441 17.5753 94.0441 19.8153V85.3272C94.0441 89.4313 92.552 91.8633 87.3241 92.2312L25.4921 95.9672C21.5721 96.1553 19.7001 95.5953 17.6441 92.9792L5.12805 76.7392C2.88805 73.7512 1.95605 71.5153 1.95605 68.8992V10.6673C1.95605 7.31125 3.45205 4.50725 7.74405 4.13925Z" fill="#0D1821"/>
</g>
<defs>
<clipPath id="clip0">
<rect width="96" height="96" fill="white"/>
</clipPath>
</defs>
</svg>
