<svg width="96" height="109" viewBox="0 0 96 109" fill="none" xmlns="http://www.w3.org/2000/svg">
<g clip-path="url(#clip0)">
<path d="M91.8393 23.9017L52.1544 0.98996C49.8683 -0.329987 46.127 -0.329987 43.841 0.98996L4.15669 23.9017C1.87042 25.2216 0 28.4616 0 31.1015V76.9249C0.177864 79.9994 1.74826 82.5457 4.15648 84.1247L43.8414 107.036C46.1273 108.356 49.8685 108.356 52.1546 107.036L91.8393 84.1247C94.4235 82.406 95.8945 79.8188 95.996 76.9249V31.1015C95.9032 28.3238 94.2399 25.5223 91.8395 23.9017H91.8393ZM15.9993 54.0134C15.8113 22.768 57.6612 8.97146 75.7083 38.004L61.8603 46.0173C53.5005 32.1906 32.7436 37.1347 31.9986 54.0134C32.2222 69.5694 52.6236 76.7956 61.8611 62.0082L75.7094 70.0216C59.8044 97.632 16.8013 87.6982 15.9995 54.0134H15.9993ZM79.9965 55.7908H76.4409V59.3464H72.8862V55.7908H69.3306V52.2356H72.8862V48.6804H76.4413V52.2356H79.9967V55.7908H79.9965ZM93.3293 55.7908H89.7737V59.3464H86.2186V55.7908H82.6634V52.2356H86.219V48.6804H89.7739V52.2356H93.3295V55.7908H93.3293Z" fill="#0D1821"/>
</g>
<defs>
<clipPath id="clip0">
<rect width="96" height="108.026" fill="white"/>
</clipPath>
</defs>
</svg>
