<svg width="96" height="96" viewBox="0 0 96 96" fill="none" xmlns="http://www.w3.org/2000/svg">
<path d="M21 15C17.7188 15 15 17.7188 15 21V75C15 78.2812 17.7188 81 21 81H75C78.2812 81 81 78.2812 81 75V21C81 17.7188 78.2812 15 75 15H21ZM21 21H75V75H59.4375V54.75H67.2188L68.3438 45.75H59.4375V39.9375C59.4375 37.3125 60.082 35.5312 63.8438 35.5312H68.7188V27.375C67.8867 27.2695 65.0039 27.0938 61.6875 27.0938C54.7734 27.0938 50.0625 31.2539 50.0625 39V45.75H42.1875V54.75H50.0625V75H21V21Z" fill="#0D1821"/>
</svg>
