<svg width="96" height="96" viewBox="0 0 96 96" fill="none" xmlns="http://www.w3.org/2000/svg">
<path fill-rule="evenodd" clip-rule="evenodd" d="M48 12C28.1133 12 12 28.1133 12 48C12 63.9023 22.3125 77.4023 36.6211 82.1602C38.4258 82.4883 39.082 81.3867 39.082 80.4258C39.082 79.5703 39.0469 77.3086 39.0352 74.3086C29.0156 76.4766 26.9062 69.4805 26.9062 69.4805C25.2656 65.3203 22.9102 64.207 22.9102 64.207C19.6406 61.9805 23.1562 62.0273 23.1562 62.0273C26.7656 62.2852 28.6641 65.7305 28.6641 65.7305C31.875 71.2383 37.0898 69.6445 39.1406 68.7305C39.4688 66.3984 40.4062 64.8164 41.4258 63.9141C33.4336 63.0117 25.0312 59.918 25.0312 46.125C25.0312 42.1875 26.4375 38.9766 28.7344 36.457C28.3711 35.5547 27.1289 31.8867 29.0859 26.9297C29.0859 26.9297 32.1094 25.9688 38.9883 30.6211C41.8594 29.8242 44.9414 29.4258 48 29.4141C51.0586 29.4258 54.1406 29.8242 57.0117 30.6211C63.8906 25.9688 66.9023 26.9297 66.9023 26.9297C68.8711 31.8867 67.6406 35.5547 67.2656 36.457C69.5742 38.9766 70.957 42.1875 70.957 46.125C70.957 59.9531 62.543 62.9883 54.5273 63.8906C55.8164 64.9922 56.9648 67.1953 56.9648 70.5469C56.9648 75.3633 56.9297 79.2422 56.9297 80.4258C56.9297 81.3867 57.5742 82.5117 59.4023 82.1602C73.6992 77.3906 84 63.9023 84 48C84 28.1133 67.8867 12 48 12Z" fill="#0D1821"/>
</svg>
