<svg width="96" height="96" viewBox="0 0 96 96" fill="none" xmlns="http://www.w3.org/2000/svg">
<g clip-path="url(#clip0)">
<path d="M82.44 9.36023e-05H13.56C12.4239 -0.005203 11.298 0.214661 10.2474 0.646986C9.19673 1.07931 8.24216 1.71553 7.4388 2.51888C6.63545 3.32224 5.99923 4.27681 5.56691 5.32745C5.13458 6.3781 4.91472 7.50399 4.92002 8.64009V87.3641C4.91525 88.4999 5.1355 89.6253 5.56807 90.6755C6.00063 91.7257 6.63693 92.6798 7.44023 93.4827C8.24353 94.2857 9.19792 94.9215 10.2483 95.3536C11.2987 95.7857 12.4243 96.0054 13.56 96.0001H82.44C83.5754 96.0049 84.7006 95.7847 85.7505 95.3524C86.8004 94.9201 87.7543 94.2842 88.5572 93.4813C89.3601 92.6784 89.996 91.7245 90.4283 90.6746C90.8606 89.6247 91.0808 88.4995 91.076 87.3641V8.64009C91.0818 7.50418 90.8625 6.37838 90.4306 5.32775C89.9987 4.27713 89.3629 3.32253 88.5598 2.51912C87.7568 1.71571 86.8025 1.07943 85.7521 0.647057C84.7016 0.214684 83.5759 -0.00520719 82.44 9.36023e-05ZM86.28 87.3641C86.28 89.5201 84.596 91.2041 82.44 91.2041H13.56C13.054 91.2106 12.5517 91.1156 12.0829 90.9249C11.6141 90.7342 11.1882 90.4516 10.8304 90.0938C10.4725 89.7359 10.1899 89.31 9.99918 88.8412C9.80849 88.3724 9.71357 87.8702 9.72002 87.3641V8.64009C9.72002 6.48009 11.4 4.79609 13.56 4.79609H82.44C82.9461 4.79073 83.4482 4.88653 83.9168 5.07786C84.3853 5.26919 84.811 5.5522 85.1687 5.91027C85.5264 6.26835 85.8089 6.69428 85.9998 7.16305C86.1906 7.63182 86.2859 8.134 86.28 8.64009V87.3641ZM26.52 81.5961L37.32 72.0001L26.52 62.4001V81.5961ZM65.4 42.7201C63.484 40.8001 59.884 38.4001 53.884 38.4001C47.4 38.4001 40.68 40.0841 35.884 41.7601V14.4001H26.284V55.9201L33.004 52.8001C33.004 52.8001 44.044 47.7601 53.644 47.7601C58.444 47.7601 59.644 50.4001 59.644 52.8001V81.6001H69.244V52.8001C69.48 52.0841 69.48 46.7961 65.4 42.7201ZM52.68 30.0001H62.28C66.6 24.9601 68.76 19.9161 69.48 14.4001H59.884C58.92 19.9161 56.52 24.9601 52.68 30.0001Z" fill="#0D1821"/>
</g>
<defs>
<clipPath id="clip0">
<rect width="96" height="96" fill="white"/>
</clipPath>
</defs>
</svg>
