<svg width="96" height="96" viewBox="0 0 96 96" fill="none" xmlns="http://www.w3.org/2000/svg">
<path d="M35.409 74.235C35.409 74.235 31.737 76.374 38.016 77.091C45.624 77.967 49.515 77.844 57.891 76.248C57.891 76.248 60.09 77.64 63.171 78.843C44.376 86.892 20.64 78.36 35.406 74.235H35.409ZM33.108 63.735C33.108 63.735 28.983 66.78 35.265 67.419C43.41 68.262 49.812 68.343 60.921 66.204C60.921 66.204 62.454 67.752 64.878 68.607C42.159 75.246 16.845 69.123 33.111 63.735H33.108ZM52.467 45.909C57.09 51.237 51.246 56.034 51.246 56.034C51.246 56.034 62.997 49.953 57.606 42.363C52.563 35.268 48.687 31.755 69.621 19.611C69.621 19.611 36.762 27.816 52.464 45.912L52.467 45.909ZM77.313 82.017C77.313 82.017 80.034 84.249 74.328 85.986C63.483 89.265 29.187 90.249 19.656 86.109C16.236 84.624 22.656 82.548 24.672 82.125C26.781 81.657 27.984 81.753 27.984 81.753C24.171 79.065 3.35998 87.018 17.409 89.298C55.737 95.517 87.264 86.502 77.313 82.017ZM37.173 52.845C37.173 52.845 19.722 56.985 30.984 58.485C35.751 59.124 45.237 58.986 54.081 58.236C61.296 57.624 68.55 56.328 68.55 56.328C68.55 56.328 66.003 57.42 64.158 58.689C46.437 63.345 12.207 61.173 22.065 56.409C30.393 52.392 37.173 52.845 37.173 52.845ZM68.469 70.344C86.469 60.969 78.141 51.984 72.345 53.205C70.92 53.484 70.281 53.754 70.281 53.754C70.281 53.754 70.797 52.923 71.814 52.566C83.313 48.519 92.157 64.485 68.109 70.815C68.109 70.8 68.394 70.566 68.469 70.347V70.344ZM57.609 0C57.609 0 67.581 9.969 48.141 25.311C32.565 37.623 44.592 44.64 48.141 52.656C39.048 44.451 32.376 37.236 36.846 30.516C43.422 20.625 61.626 15.843 57.609 0ZM38.937 95.703C56.22 96.795 82.764 95.079 83.409 86.907C83.409 86.907 82.188 90 69.108 92.466C54.36 95.247 36.156 94.917 25.359 93.138C25.359 93.138 27.579 94.965 38.934 95.703H38.937Z" fill="black"/>
</svg>
