<svg width="96" height="96" viewBox="0 0 96 96" fill="none" xmlns="http://www.w3.org/2000/svg">
<path d="M12 12H84V84H12V12ZM78.1 66.828C77.576 63.544 75.436 60.784 69.092 58.208C66.884 57.172 64.432 56.456 63.696 54.792C63.424 53.8 63.384 53.264 63.56 52.676C64.012 50.74 66.308 50.16 68.108 50.696C69.28 51.056 70.36 51.956 71.036 53.4C74.136 51.372 74.136 51.372 76.3 50.024C75.488 48.768 75.084 48.22 74.544 47.68C72.652 45.568 70.132 44.488 66.04 44.58L63.928 44.848C61.9 45.344 59.964 46.428 58.796 47.864C55.376 51.736 56.364 58.484 60.504 61.28C64.596 64.34 70.588 65.012 71.352 67.892C72.072 71.404 68.744 72.528 65.452 72.124C63.024 71.58 61.672 70.368 60.188 68.116L54.7 71.268C55.328 72.704 56.048 73.336 57.128 74.596C62.348 79.86 75.4 79.592 77.74 71.58C77.824 71.312 78.46 69.468 77.964 66.632L78.1 66.828ZM51.152 45.092H44.408C44.408 50.904 44.38 56.684 44.38 62.508C44.38 66.204 44.568 69.596 43.964 70.64C42.976 72.708 40.42 72.444 39.264 72.076C38.076 71.492 37.472 70.68 36.772 69.512C36.584 69.2 36.444 68.928 36.392 68.928L30.92 72.304C31.836 74.196 33.172 75.82 34.896 76.852C37.46 78.384 40.904 78.88 44.512 78.072C46.864 77.392 48.892 75.996 49.944 73.836C51.48 71.048 51.152 67.624 51.14 63.8C51.172 57.636 51.14 51.468 51.14 45.26L51.152 45.092Z" fill="#0D1821"/>
</svg>
