<svg width="96" height="96" viewBox="0 0 96 96" fill="none" xmlns="http://www.w3.org/2000/svg">
<path d="M48 64C56.8366 64 64 56.8366 64 48C64 39.1634 56.8366 32 48 32C39.1634 32 32 39.1634 32 48C32 56.8366 39.1634 64 48 64Z" fill="black"/>
<path d="M52 16.276V8H44V16.276C36.9612 17.1747 30.4199 20.3847 25.4023 25.4023C20.3847 30.4199 17.1747 36.9612 16.276 44H8V52H16.276C17.1734 59.0393 20.3829 65.5814 25.4008 70.5992C30.4186 75.6171 36.9607 78.8266 44 79.724V88H52V79.724C59.0396 78.8272 65.582 75.6179 70.6 70.6C75.6179 65.582 78.8272 59.0396 79.724 52H88V44H79.724C78.8266 36.9607 75.6171 30.4186 70.5992 25.4008C65.5814 20.3829 59.0393 17.1734 52 16.276ZM48 72C34.764 72 24 61.236 24 48C24 34.764 34.764 24 48 24C61.236 24 72 34.764 72 48C72 61.236 61.236 72 48 72Z" fill="black"/>
</svg>
