<svg width="96" height="96" viewBox="0 0 96 96" fill="none" xmlns="http://www.w3.org/2000/svg">
<path d="M81.948 68.56L65.688 53.776C64.9194 53.0774 63.9094 52.7048 62.8712 52.7369C61.8331 52.769 60.848 53.2033 60.124 53.948L50.552 63.792C48.248 63.352 43.616 61.908 38.848 57.152C34.08 52.38 32.636 47.736 32.208 45.448L42.044 35.872C42.7896 35.1485 43.2245 34.1633 43.2566 33.1248C43.2887 32.0863 42.9155 31.0761 42.216 30.308L27.436 14.052C26.7362 13.2814 25.7635 12.814 24.7246 12.749C23.6857 12.684 22.6624 13.0266 21.872 13.704L13.192 21.148C12.5004 21.842 12.0877 22.7658 12.032 23.744C11.972 24.744 10.828 48.432 29.196 66.808C45.22 82.828 65.292 84 70.82 84C71.628 84 72.124 83.976 72.256 83.968C73.2341 83.9132 74.1573 83.4986 74.848 82.804L82.288 74.12C82.968 73.3321 83.3131 72.3096 83.2496 71.2708C83.1861 70.232 82.719 69.2591 81.948 68.56Z" fill="black"/>
</svg>
