<svg width="96" height="96" viewBox="0 0 96 96" fill="none" xmlns="http://www.w3.org/2000/svg">
<path d="M48 52.1198C51.9433 52.1198 55.14 48.9232 55.14 44.9798C55.14 41.0365 51.9433 37.8398 48 37.8398C44.0567 37.8398 40.86 41.0365 40.86 44.9798C40.86 48.9232 44.0567 52.1198 48 52.1198Z" fill="#0D1821"/>
<path d="M28.008 59.1759L26.428 58.7719C14.692 55.808 7.96002 50.768 7.96002 44.964C7.96002 39.156 14.696 34.12 26.428 31.156L28.008 30.756L28.452 32.32C29.6382 36.4147 31.1579 40.4054 32.996 44.252L33.336 44.964L32.996 45.676C31.156 49.528 29.632 53.52 28.452 57.616L28.008 59.1759ZM25.7 34.796C16.784 37.308 11.308 41.14 11.308 44.964C11.308 48.78 16.78 52.616 25.7 55.124C26.792 51.652 28.112 48.256 29.64 44.964C28.101 41.6665 26.7847 38.2695 25.7 34.796ZM67.988 59.1759L67.548 57.608C66.3587 53.5124 64.8377 49.5205 63 45.672L62.66 44.964L63 44.248C64.84 40.404 66.356 36.408 67.548 32.312L67.988 30.752L69.568 31.152C81.308 34.116 88.036 39.152 88.036 44.964C88.036 50.772 81.304 55.808 69.568 58.7719L67.988 59.1759ZM66.348 44.964C67.948 48.428 69.28 51.836 70.296 55.124C79.216 52.616 84.692 48.78 84.692 44.964C84.692 41.14 79.22 37.312 70.296 34.796C69.2051 38.2684 67.8863 41.6652 66.348 44.964Z" fill="#0D1821"/>
<path d="M25.676 34.78L25.236 33.22C21.932 21.588 22.932 13.256 27.984 10.352C32.924 7.49199 40.872 10.872 49.196 19.412L50.332 20.58L49.196 21.744C46.2395 24.8187 43.5373 28.1283 41.116 31.64L40.664 32.288L39.88 32.352C35.6224 32.6864 31.399 33.3673 27.252 34.388L25.676 34.78ZM32.004 12.664C31.108 12.664 30.316 12.86 29.648 13.244C26.336 15.152 25.752 21.796 28.032 30.764C31.596 29.976 35.192 29.412 38.816 29.096C40.9141 26.1202 43.2029 23.2836 45.668 20.604C40.456 15.536 35.536 12.664 32.004 12.664ZM63.992 80.6C59.24 80.6 53.136 77.016 46.8 70.512L45.668 69.348L46.8 68.188C49.757 65.1083 52.4604 61.7949 54.884 58.28L55.332 57.64L56.108 57.564C60.3672 57.2355 64.5921 56.5572 68.74 55.536L70.32 55.136L70.764 56.7C74.052 68.324 73.056 76.668 68.012 79.572C66.7873 80.2662 65.3996 80.6211 63.992 80.6ZM50.332 69.32C55.54 74.388 60.464 77.264 63.992 77.264C64.892 77.264 65.684 77.064 66.348 76.684C69.664 74.772 70.252 68.116 67.964 59.148C64.404 59.94 60.804 60.508 57.172 60.824C55.0829 63.8045 52.7978 66.6427 50.332 69.32Z" fill="#0D1821"/>
<path d="M70.32 34.7798L68.74 34.3838C64.5923 33.3599 60.3674 32.679 56.108 32.3478L55.332 32.2798L54.884 31.6318C52.4638 28.1181 49.7601 24.8084 46.8 21.7358L45.668 20.5718L46.8 19.4118C55.12 10.8758 63.064 7.4958 68.012 10.3518C73.06 13.2598 74.064 21.5918 70.764 33.2198L70.32 34.7798ZM57.172 29.0958C60.988 29.4358 64.604 30.0078 67.964 30.7638C70.248 21.7958 69.664 15.1518 66.348 13.2398C63.052 11.3318 56.848 14.2518 50.332 20.6038C52.796 23.2838 55.084 26.1158 57.172 29.0958ZM32.004 80.5998C30.5966 80.6199 29.2091 80.2651 27.984 79.5718C22.932 76.6678 21.932 68.3278 25.232 56.6998L25.664 55.1358L27.244 55.5358C31.1 56.5078 35.348 57.1918 39.876 57.5638L40.652 57.6398L41.104 58.2798C43.52 61.7918 46.224 65.1078 49.184 68.1878L50.32 69.3478L49.184 70.5118C42.852 77.0198 36.748 80.5998 32.004 80.5998ZM28.032 59.1518C25.752 68.1198 26.336 74.7758 29.648 76.6878C32.948 78.5678 39.132 75.6678 45.668 69.3198C43.2038 66.6394 40.9151 63.8028 38.816 60.8278C35.1884 60.507 31.5859 59.9471 28.032 59.1518Z" fill="#0D1821"/>
<path d="M48 61.2519C45.252 61.2519 42.432 61.1359 39.6 60.8999L38.816 60.8319L38.364 60.1839C36.767 57.8874 35.2644 55.5268 33.86 53.1079C32.466 50.6824 31.1703 48.2017 29.976 45.6719L29.64 44.9639L29.976 44.2479C31.172 41.7199 32.464 39.2399 33.86 36.8159C35.248 34.4319 36.764 32.0479 38.364 29.7359L38.816 29.0959L39.6 29.0239C45.1876 28.5559 50.8045 28.5559 56.392 29.0239L57.168 29.0999L57.62 29.7399C60.8192 34.3349 63.629 39.1891 66.02 44.2519L66.352 44.9679L66.02 45.6759C63.6356 50.7421 60.8255 55.5969 57.62 60.1879L57.168 60.8359L56.392 60.9039C53.568 61.1319 50.744 61.2519 48 61.2519ZM40.664 57.6359C45.604 58.0079 50.396 58.0079 55.332 57.6359C58.0876 53.6007 60.5371 49.3648 62.66 44.9639C60.5446 40.5589 58.0947 36.3225 55.332 32.2919C50.4499 31.9158 45.5461 31.9158 40.664 32.2919C37.899 36.321 35.449 40.5576 33.336 44.9639C35.4635 49.3624 37.9129 53.5979 40.664 57.6359Z" fill="#0D1821"/>
</svg>
