<svg width="96" height="96" viewBox="0 0 96 96" fill="none" xmlns="http://www.w3.org/2000/svg">
<g clip-path="url(#clip0)">
<path d="M84.588 0H11.412C8.38762 0.00739331 5.48923 1.2121 3.35066 3.35066C1.2121 5.48923 0.00739331 8.38762 0 11.412L0 84.588C0.00739331 87.6124 1.2121 90.5108 3.35066 92.6493C5.48923 94.7879 8.38762 95.9926 11.412 96H84.588C87.6124 95.9926 90.5108 94.7879 92.6493 92.6493C94.7879 90.5108 95.9926 87.6124 96 84.588V11.412C95.9926 8.38762 94.7879 5.48923 92.6493 3.35066C90.5108 1.2121 87.6124 0.00739331 84.588 0V0ZM41.36 69.148C41.36 70.159 40.9584 71.1286 40.2435 71.8435C39.5286 72.5584 38.559 72.96 37.548 72.96H21.548C20.5366 72.96 19.5666 72.5585 18.8511 71.8437C18.1356 71.129 17.7331 70.1594 17.732 69.148V21.52C17.732 21.0191 17.8307 20.523 18.0226 20.0603C18.2144 19.5975 18.4955 19.1771 18.8499 18.8231C19.2043 18.4691 19.625 18.1884 20.088 17.997C20.5509 17.8057 21.0471 17.7075 21.548 17.708H37.548C38.5587 17.7091 39.5277 18.111 40.2423 18.8257C40.957 19.5403 41.3589 20.5093 41.36 21.52V69.148ZM78.292 47.28C78.2936 47.7799 78.1959 48.2752 78.0046 48.7371C77.8133 49.1989 77.5322 49.6182 77.1776 49.9706C76.823 50.323 76.4019 50.6015 75.9389 50.7898C75.4758 50.9782 74.9799 51.0728 74.48 51.068H58.48C57.9805 51.0712 57.4854 50.9755 57.023 50.7866C56.5607 50.5976 56.1402 50.3191 55.7859 49.967C55.4317 49.615 55.1505 49.1963 54.9586 48.7352C54.7668 48.274 54.668 47.7795 54.668 47.28V21.52C54.668 20.509 55.0696 19.5394 55.7845 18.8245C56.4994 18.1096 57.469 17.708 58.48 17.708H74.48C75.4907 17.7091 76.4597 18.111 77.1743 18.8257C77.889 19.5403 78.2909 20.5093 78.292 21.52V47.28Z" fill="#0D1821"/>
</g>
<defs>
<clipPath id="clip0">
<rect width="96" height="96" fill="white"/>
</clipPath>
</defs>
</svg>
